<svg width="63" height="78" viewBox="0 0 63 78" fill="none" xmlns="http://www.w3.org/2000/svg">
<path d="M25.62 78C16.94 78 10.6 76 6.6 72C2.6 68 0.600001 61.66 0.600001 52.98V25.68C0.600001 16.92 2.58 10.56 6.54 6.6C10.54 2.64 16.86 0.659998 25.5 0.659998H40.02C47.38 0.659998 52.86 2.2 56.46 5.28C60.06 8.32 62.04 13.22 62.4 19.98C62.52 21.06 62.3 21.88 61.74 22.44C61.22 23 60.44 23.28 59.4 23.28C57.4 23.28 56.3 22.22 56.1 20.1C55.82 15.14 54.46 11.72 52.02 9.84C49.58 7.92 45.58 6.96 40.02 6.96H25.5C20.9 6.96 17.24 7.56 14.52 8.76C11.8 9.92 9.84 11.88 8.64 14.64C7.48 17.36 6.9 21.04 6.9 25.68V52.98C6.9 57.62 7.5 61.3 8.7 64.02C9.9 66.74 11.86 68.7 14.58 69.9C17.3 71.1 20.98 71.7 25.62 71.7H40.02C44.1 71.7 47.32 71.2 49.68 70.2C52.08 69.2 53.78 67.52 54.78 65.16C55.78 62.8 56.28 59.54 56.28 55.38V47.88L43.14 47.76C41.06 47.76 40.02 46.7 40.02 44.58C40.02 42.5 41.06 41.46 43.14 41.46L59.46 41.58C61.54 41.58 62.58 42.62 62.58 44.7V55.38C62.58 63.3 60.8 69.06 57.24 72.66C53.68 76.22 47.94 78 40.02 78H25.62Z" fill="black"/>
</svg>
