<svg width="204" height="201" viewBox="0 0 204 201" fill="none" xmlns="http://www.w3.org/2000/svg">
<path d="M153.914 120.681L65.6256 151.291L57.9379 121.181L47.5475 120.14L45.9259 90.1701L85.5055 78.2381L120.16 79.9398L135.736 75.2351L142.142 81.0209L141.381 92.5725L137.738 101.221L153.914 120.681Z" fill="#E7D2D5"/>
<path d="M61.5215 135.195L44.4244 145.505L29.6696 184.524L23.5235 189.71H0V166.847H23.5235V175.555L27.2472 173.734L40.6606 142.903L60.8007 132.392L61.5215 135.195Z" fill="#333333"/>
<path d="M120.16 79.9398L115.495 106.466L83.5434 116.096L97.2571 78.8188L120.16 79.9398Z" fill="#333333"/>
<path d="M172.372 99.7196L168.468 115.636L153.914 120.681L137.738 101.221L141.381 92.5725L142.142 81.0209L144.304 81.1211L172.372 99.7196Z" fill="#333333"/>
<path d="M179.259 78.6186L171.511 36.7768L153.613 18.3984L150.771 17.7577L151.011 15.4154L145.105 14.034L154.054 6.90023L137.577 0.920918L134.014 7.42742L134.054 2.84284L116.737 0L120.08 8.16816L111.992 6.28628L111.111 8.68201L97.3973 5.56556L57.2372 24.8849L34.2742 69.9899L5.30525 88.1481L39.1991 92.1921L45.9259 90.1701L85.5055 78.2381L120.16 79.9398L135.736 75.2351L142.142 81.0209L144.304 81.1211L174.054 100.841L200.2 103.824L179.259 78.6186Z" fill="#A23938"/>
<path d="M181.154 111.241L56.3896 154.484L43.0163 199.168H143.377L203.176 159.128L181.154 111.241Z" fill="#A23938"/>
<path d="M85.5055 78.2381L45.9259 90.1701L39.1991 92.1921L5.30525 88.1481L34.2742 69.9899L85.5055 78.2381Z" fill="#7D2B29"/>
<path d="M200.2 103.824L174.054 100.841L144.304 81.1211L179.259 78.6186L200.2 103.824Z" fill="#7D2B29"/>
<path d="M151.011 15.4087L144.304 81.1211L142.142 81.0209L135.736 75.2351L120.16 79.9398L85.5055 78.2381L111.992 6.28628L151.011 15.4087Z" fill="#7D2B29"/>
<path d="M200.2 160.16L140.4 200.2H40.04L196.116 151.271L200.2 160.16Z" fill="#7D2B29"/>
</svg>
