<svg width="934" height="201" viewBox="0 0 934 201" fill="none" xmlns="http://www.w3.org/2000/svg">
<path d="M153.914 120.681L65.6256 151.291L57.9379 121.181L47.5475 120.14L45.9259 90.1701L85.5055 78.2381L120.16 79.9398L135.736 75.2351L142.142 81.0209L141.381 92.5725L137.738 101.221L153.914 120.681Z" fill="#E7D2D5"/>
<path d="M61.5215 135.195L44.4244 145.505L29.6696 184.524L23.5235 189.71H0V166.847H23.5235V175.555L27.2472 173.734L40.6606 142.903L60.8007 132.392L61.5215 135.195Z" fill="#333333"/>
<path d="M120.16 79.9398L115.495 106.466L83.5434 116.096L97.2571 78.8188L120.16 79.9398Z" fill="#333333"/>
<path d="M172.372 99.7196L168.468 115.636L153.914 120.681L137.738 101.221L141.381 92.5725L142.142 81.0209L144.304 81.1211L172.372 99.7196Z" fill="#333333"/>
<path d="M179.259 78.6186L171.511 36.7768L153.613 18.3984L150.771 17.7577L151.011 15.4154L145.105 14.034L154.054 6.90023L137.577 0.920918L134.014 7.42742L134.054 2.84284L116.737 0L120.08 8.16816L111.992 6.28628L111.111 8.68201L97.3973 5.56556L57.2372 24.8849L34.2742 69.9899L5.30525 88.1481L39.1991 92.1921L45.9259 90.1701L85.5055 78.2381L120.16 79.9398L135.736 75.2351L142.142 81.0209L144.304 81.1211L174.054 100.841L200.2 103.824L179.259 78.6186Z" fill="#A23938"/>
<path d="M181.154 111.241L56.3896 154.484L43.0163 199.168H143.377L203.176 159.128L181.154 111.241Z" fill="#A23938"/>
<path d="M85.5055 78.2381L45.9259 90.1701L39.1991 92.1921L5.30525 88.1481L34.2742 69.9899L85.5055 78.2381Z" fill="#7D2B29"/>
<path d="M200.2 103.824L174.054 100.841L144.304 81.1211L179.259 78.6186L200.2 103.824Z" fill="#7D2B29"/>
<path d="M151.011 15.4087L144.304 81.1211L142.142 81.0209L135.736 75.2351L120.16 79.9398L85.5055 78.2381L111.992 6.28628L151.011 15.4087Z" fill="#7D2B29"/>
<path d="M200.2 160.16L140.4 200.2H40.04L196.116 151.271L200.2 160.16Z" fill="#7D2B29"/>
<path d="M218.424 163.56C211.04 163.56 204.644 162.208 199.236 159.504C193.828 156.696 189.616 152.796 186.6 147.804C183.688 142.708 182.232 136.728 182.232 129.864V80.256C182.232 73.392 183.688 67.464 186.6 62.472C189.616 57.376 193.828 53.476 199.236 50.772C204.644 47.964 211.04 46.56 218.424 46.56C225.704 46.56 232.048 47.964 237.456 50.772C242.864 53.476 247.076 57.376 250.092 62.472C253.108 67.464 254.616 73.392 254.616 80.256H234.96C234.96 74.952 233.504 70.896 230.592 68.088C227.784 65.176 223.728 63.72 218.424 63.72C213.12 63.72 209.012 65.124 206.1 67.932C203.188 70.74 201.732 74.796 201.732 80.1V129.864C201.732 135.168 203.188 139.276 206.1 142.188C209.012 145.1 213.12 146.556 218.424 146.556C223.728 146.556 227.784 145.1 230.592 142.188C233.504 139.276 234.96 135.168 234.96 129.864V117.228H215.616V100.38H254.616V129.864C254.616 136.728 253.108 142.708 250.092 147.804C247.076 152.796 242.864 156.696 237.456 159.504C232.048 162.208 225.704 163.56 218.424 163.56ZM277.019 162V48.12H347.843V66.216H296.207V96.636H343.787V114.732H296.519V162H277.019ZM372.118 162V144.372H395.05V65.748H372.118V48.12H437.638V65.748H414.706V144.372H437.638V162H372.118ZM462.849 162V48.12H486.717L518.385 140.16C518.073 136.832 517.761 132.932 517.449 128.46C517.137 123.884 516.825 119.256 516.513 114.576C516.305 109.896 516.201 105.736 516.201 102.096V48.12H533.985V162H510.117L478.761 69.96C478.969 72.976 479.229 76.616 479.541 80.88C479.853 85.144 480.113 89.512 480.321 93.984C480.529 98.456 480.633 102.564 480.633 106.308V162H462.849ZM556.856 162V48.12H590.708C598.404 48.12 605.06 49.628 610.676 52.644C616.396 55.556 620.816 59.664 623.936 64.968C627.056 70.272 628.616 76.512 628.616 83.688V126.276C628.616 133.452 627.056 139.744 623.936 145.152C620.816 150.456 616.396 154.616 610.676 157.632C605.06 160.544 598.404 162 590.708 162H556.856ZM576.356 144.528H590.708C596.324 144.528 600.796 142.916 604.124 139.692C607.452 136.364 609.116 131.892 609.116 126.276V83.688C609.116 78.176 607.452 73.808 604.124 70.584C600.796 67.256 596.324 65.592 590.708 65.592H576.356V144.528ZM652.423 162V48.12H720.751V65.28H671.611V94.92H715.291V111.456H671.611V144.84H720.751V162H652.423ZM744.246 162V48.12H780.126C787.718 48.12 794.27 49.524 799.782 52.332C805.398 55.14 809.766 59.092 812.886 64.188C816.006 69.18 817.566 75.108 817.566 81.972C817.566 89.564 815.694 96.22 811.95 101.94C808.206 107.556 803.162 111.56 796.818 113.952L819.126 162H797.754L777.786 116.76H763.59V162H744.246ZM763.59 99.6H780.126C785.638 99.6 789.954 98.092 793.074 95.076C796.194 92.06 797.754 87.9 797.754 82.596C797.754 77.292 796.142 73.08 792.918 69.96C789.798 66.84 785.534 65.28 780.126 65.28H763.59V99.6Z" fill="#333333"/>
</svg>
